# xmcd CD database file
# Copyright (C) 1996 Ti Kan
#
# Track frame offsets:
#	150
#	20528
#	29382
#	44052
#	61780
#	81411
#	100123
#	111943
#	130476
#	149235
#	163508
#	178349
#	194284
#	215262
# Disc length: 3233 seconds
#
# Revision: 1
# Processed by: cddbd v1.4PL0 Copyright (c) Steve Scherf et al.
# Submitted via: CDCOPY 4.900
#
DISCID=d30c9f0e
DTITLE=Nitty Gritty Dirt Band - Will The Circle Be Unbroken V3D2
DYEAR=1900
DGENRE=
TTITLE0=Fishin' Blues
TTITLE1=Save It, Save It
TTITLE2=Wheels
TTITLE3=Roll In My Sweet Baby's Arms
TTITLE4=Oh Cumberland
TTITLE5=I Am A Pilgrim
TTITLE6=Sallie Ann
TTITLE7=Catfish John
TTITLE8=Roll The Stone Away
TTITLE9=All Prayed Up
TTITLE10=Return To Dismal Swamp II
TTITLE11=There Is A Time
TTITLE12=Will the Circle Be Unbroken (Glory, Glory)
TTITLE13=Farther Along
EXTD=
EXTT0=
EXTT1=
EXTT2=
EXTT3=
EXTT4=
EXTT5=
EXTT6=
EXTT7=
EXTT8=
EXTT9=
EXTT10=
EXTT11=
EXTT12=
EXTT13=
PLAYORDER=
